<?xml version="1.0" encoding="UTF-8" standalone="no"?>
<svg
   xmlns:dc="http://purl.org/dc/elements/1.1/"
   xmlns:cc="http://creativecommons.org/ns#"
   xmlns:rdf="http://www.w3.org/1999/02/22-rdf-syntax-ns#"
   xmlns:svg="http://www.w3.org/2000/svg"
   xmlns="http://www.w3.org/2000/svg"
   xmlns:sodipodi="http://sodipodi.sourceforge.net/DTD/sodipodi-0.dtd"
   xmlns:inkscape="http://www.inkscape.org/namespaces/inkscape"
   version="1.0"
   width="110mm"
   height="100mm"
   id="svg4243"
   inkscape:version="0.91 r13725"
   viewBox="0 0 110 99.999998"
   sodipodi:docname="massive_spatial.svg">
  <metadata
     id="metadata4370">
    <rdf:RDF>
      <cc:Work
         rdf:about="">
        <dc:format>image/svg+xml</dc:format>
        <dc:type
           rdf:resource="http://purl.org/dc/dcmitype/StillImage" />
        <dc:title></dc:title>
      </cc:Work>
    </rdf:RDF>
  </metadata>
  <sodipodi:namedview
     pagecolor="#ffffff"
     bordercolor="#666666"
     borderopacity="1"
     objecttolerance="10"
     gridtolerance="10"
     guidetolerance="10"
     inkscape:pageopacity="0"
     inkscape:pageshadow="2"
     inkscape:window-width="1366"
     inkscape:window-height="706"
     id="namedview4368"
     inkscape:document-units="mm"
     showgrid="false"
     inkscape:zoom="0.64681817"
     inkscape:cx="601.4055"
     inkscape:cy="218.81981"
     inkscape:window-x="-8"
     inkscape:window-y="-8"
     inkscape:window-maximized="1"
     inkscape:current-layer="svg4243" />
  <defs
     id="defs4245">
    <pattern
       id="EMFhbasepattern"
       patternUnits="userSpaceOnUse"
       width="6"
       height="6"
       x="0"
       y="0" />
  </defs>
  <path
     style="fill:#5b9bd5;fill-opacity:1;fill-rule:evenodd;stroke:none"
     d="m 50.872488,49.938669 c 0,-1.590604 1.20904,-2.884311 2.69381,-2.884311 1.48985,0 2.69353,1.293707 2.69353,2.884311 0,1.596249 -1.20368,2.884594 -2.69353,2.884594 -1.48477,0 -2.69381,-1.288345 -2.69381,-2.884594 z"
     id="path4250"
     inkscape:connector-curvature="0" />
  <path
     style="fill:none;stroke:#41719c;stroke-width:0.33935207px;stroke-linecap:butt;stroke-linejoin:miter;stroke-miterlimit:8;stroke-dasharray:none;stroke-opacity:1"
     d="m 50.872488,49.938669 c 0,-1.590604 1.20904,-2.884311 2.69381,-2.884311 1.48985,0 2.69353,1.293707 2.69353,2.884311 0,1.596249 -1.20368,2.884594 -2.69353,2.884594 -1.48477,0 -2.69381,-1.288345 -2.69381,-2.884594"
     id="path4252"
     inkscape:connector-curvature="0" />
  <path
     style="fill:#5b9bd5;fill-opacity:1;fill-rule:evenodd;stroke:none"
     d="m 50.872488,25.335664 c 0,-1.590604 1.20904,-2.884311 2.69381,-2.884311 1.48985,0 2.69353,1.293707 2.69353,2.884311 0,1.595967 -1.20368,2.884593 -2.69353,2.884593 -1.48477,0 -2.69381,-1.288626 -2.69381,-2.884593 z"
     id="path4254"
     inkscape:connector-curvature="0" />
  <path
     style="fill:none;stroke:#41719c;stroke-width:0.33935207px;stroke-linecap:butt;stroke-linejoin:miter;stroke-miterlimit:8;stroke-dasharray:none;stroke-opacity:1"
     d="m 50.872488,25.335664 c 0,-1.590604 1.20904,-2.884311 2.69381,-2.884311 1.48985,0 2.69353,1.293707 2.69353,2.884311 0,1.595967 -1.20368,2.884593 -2.69353,2.884593 -1.48477,0 -2.69381,-1.288626 -2.69381,-2.884593"
     id="path4256"
     inkscape:connector-curvature="0" />
  <path
     style="fill:#5b9bd5;fill-opacity:1;fill-rule:evenodd;stroke:none"
     d="m 30.426618,63.237263 c 0,-1.58016 1.20904,-2.86343 2.69353,-2.86343 1.49013,0 2.69381,1.28327 2.69381,2.86343 0,1.58524 -1.20368,2.86314 -2.69381,2.86314 -1.48449,0 -2.69353,-1.2779 -2.69353,-2.86314 z"
     id="path4258"
     inkscape:connector-curvature="0" />
  <path
     style="fill:none;stroke:#41719c;stroke-width:0.33935207px;stroke-linecap:butt;stroke-linejoin:miter;stroke-miterlimit:8;stroke-dasharray:none;stroke-opacity:1"
     d="m 30.426618,63.237263 c 0,-1.58016 1.20904,-2.86343 2.69353,-2.86343 1.49013,0 2.69381,1.28327 2.69381,2.86343 0,1.58524 -1.20368,2.86314 -2.69381,2.86314 -1.48449,0 -2.69353,-1.2779 -2.69353,-2.86314"
     id="path4260"
     inkscape:connector-curvature="0" />
  <path
     style="fill:#5b9bd5;fill-opacity:1;fill-rule:evenodd;stroke:none"
     d="m 73.397208,63.237263 c 0,-1.58016 1.20876,-2.86343 2.69353,-2.86343 1.48985,0 2.69353,1.28327 2.69353,2.86343 0,1.58524 -1.20368,2.86314 -2.69353,2.86314 -1.48477,0 -2.69353,-1.2779 -2.69353,-2.86314 z"
     id="path4262"
     inkscape:connector-curvature="0" />
  <path
     style="fill:none;stroke:#41719c;stroke-width:0.33935207px;stroke-linecap:butt;stroke-linejoin:miter;stroke-miterlimit:8;stroke-dasharray:none;stroke-opacity:1"
     d="m 73.397208,63.237263 c 0,-1.58016 1.20876,-2.86343 2.69353,-2.86343 1.48985,0 2.69353,1.28327 2.69353,2.86343 0,1.58524 -1.20368,2.86314 -2.69353,2.86314 -1.48477,0 -2.69353,-1.2779 -2.69353,-2.86314"
     id="path4264"
     inkscape:connector-curvature="0" />
  <path
     style="fill:#5b9bd5;fill-opacity:1;fill-rule:evenodd;stroke:none"
     d="m 30.426618,10.213351 c 0,-1.5801627 1.20904,-2.8631447 2.69353,-2.8631447 1.49013,0 2.69381,1.282982 2.69381,2.8631447 0,1.585524 -1.20368,2.863426 -2.69381,2.863426 -1.48449,0 -2.69353,-1.277902 -2.69353,-2.863426 z"
     id="path4266"
     inkscape:connector-curvature="0" />
  <path
     style="fill:none;stroke:#41719c;stroke-width:0.33935207px;stroke-linecap:butt;stroke-linejoin:miter;stroke-miterlimit:8;stroke-dasharray:none;stroke-opacity:1"
     d="m 30.426618,10.213351 c 0,-1.5801627 1.20904,-2.8631447 2.69353,-2.8631447 1.49013,0 2.69381,1.282982 2.69381,2.8631447 0,1.585524 -1.20368,2.863426 -2.69381,2.863426 -1.48449,0 -2.69353,-1.277902 -2.69353,-2.863426"
     id="path4268"
     inkscape:connector-curvature="0" />
  <path
     style="fill:#5b9bd5;fill-opacity:1;fill-rule:evenodd;stroke:none"
     d="m 73.397208,10.213351 c 0,-1.5801627 1.20876,-2.8631447 2.69353,-2.8631447 1.48985,0 2.69353,1.282982 2.69353,2.8631447 0,1.585524 -1.20368,2.863426 -2.69353,2.863426 -1.48477,0 -2.69353,-1.277902 -2.69353,-2.863426 z"
     id="path4270"
     inkscape:connector-curvature="0" />
  <path
     style="fill:none;stroke:#41719c;stroke-width:0.33935207px;stroke-linecap:butt;stroke-linejoin:miter;stroke-miterlimit:8;stroke-dasharray:none;stroke-opacity:1"
     d="m 73.397208,10.213351 c 0,-1.5801627 1.20876,-2.8631447 2.69353,-2.8631447 1.48985,0 2.69353,1.282982 2.69353,2.8631447 0,1.585524 -1.20368,2.863426 -2.69353,2.863426 -1.48477,0 -2.69353,-1.277902 -2.69353,-2.863426"
     id="path4272"
     inkscape:connector-curvature="0" />
  <path
     style="fill:#5b9bd5;fill-opacity:1;fill-rule:evenodd;stroke:none"
     d="m 7.8172327,53.544341 c 0,-1.590605 1.198316,-2.884594 2.6723663,-2.884594 1.47941,0 2.67264,1.293989 2.67264,2.884594 0,1.595966 -1.19323,2.884593 -2.67264,2.884593 -1.4740503,0 -2.6723663,-1.288627 -2.6723663,-2.884593 z"
     id="path4274"
     inkscape:connector-curvature="0" />
  <path
     style="fill:none;stroke:#41719c;stroke-width:0.33935207px;stroke-linecap:butt;stroke-linejoin:miter;stroke-miterlimit:8;stroke-dasharray:none;stroke-opacity:1"
     d="m 7.8172327,53.544341 c 0,-1.590605 1.198316,-2.884594 2.6723663,-2.884594 1.47941,0 2.67264,1.293989 2.67264,2.884594 0,1.595966 -1.19323,2.884593 -2.67264,2.884593 -1.4740503,0 -2.6723663,-1.288627 -2.6723663,-2.884593"
     id="path4276"
     inkscape:connector-curvature="0" />
  <path
     style="fill:#5b9bd5;fill-opacity:1;fill-rule:evenodd;stroke:none"
     d="m 24.954608,83.937693 c 0,-1.58016 1.20904,-2.86342 2.69353,-2.86342 1.49014,0 2.69353,1.28326 2.69353,2.86342 0,1.58525 -1.20339,2.86315 -2.69353,2.86315 -1.48449,0 -2.69353,-1.2779 -2.69353,-2.86315 z"
     id="path4278"
     inkscape:connector-curvature="0" />
  <path
     style="fill:none;stroke:#41719c;stroke-width:0.33935207px;stroke-linecap:butt;stroke-linejoin:miter;stroke-miterlimit:8;stroke-dasharray:none;stroke-opacity:1"
     d="m 24.954608,83.937693 c 0,-1.58016 1.20904,-2.86342 2.69353,-2.86342 1.49014,0 2.69353,1.28326 2.69353,2.86342 0,1.58525 -1.20339,2.86315 -2.69353,2.86315 -1.48449,0 -2.69353,-1.2779 -2.69353,-2.86315"
     id="path4280"
     inkscape:connector-curvature="0" />
  <path
     style="fill:#5b9bd5;fill-opacity:1;fill-rule:evenodd;stroke:none"
     d="m 70.046108,86.016263 c 0,-1.58016 1.20875,-2.86343 2.69352,-2.86343 1.48986,0 2.69353,1.28327 2.69353,2.86343 0,1.58524 -1.20367,2.86315 -2.69353,2.86315 -1.48477,0 -2.69352,-1.27791 -2.69352,-2.86315 z"
     id="path4282"
     inkscape:connector-curvature="0" />
  <path
     style="fill:none;stroke:#41719c;stroke-width:0.33935207px;stroke-linecap:butt;stroke-linejoin:miter;stroke-miterlimit:8;stroke-dasharray:none;stroke-opacity:1"
     d="m 70.046108,86.016263 c 0,-1.58016 1.20875,-2.86343 2.69352,-2.86343 1.48986,0 2.69353,1.28327 2.69353,2.86343 0,1.58524 -1.20367,2.86315 -2.69353,2.86315 -1.48477,0 -2.69352,-1.27791 -2.69352,-2.86315"
     id="path4284"
     inkscape:connector-curvature="0" />
  <path
     style="fill:#5b9bd5;fill-opacity:1;fill-rule:evenodd;stroke:none"
     d="m 99.527318,57.871089 c 0,-1.590604 1.198322,-2.884593 2.672362,-2.884593 1.48449,0 2.67237,1.293989 2.67237,2.884593 0,1.601324 -1.18788,2.884594 -2.67237,2.884594 -1.47404,0 -2.672362,-1.28327 -2.672362,-2.884594 z"
     id="path4286"
     inkscape:connector-curvature="0" />
  <path
     style="fill:none;stroke:#41719c;stroke-width:0.33935207px;stroke-linecap:butt;stroke-linejoin:miter;stroke-miterlimit:8;stroke-dasharray:none;stroke-opacity:1"
     d="m 99.527318,57.871089 c 0,-1.590604 1.198322,-2.884593 2.672362,-2.884593 1.48449,0 2.67237,1.293989 2.67237,2.884593 0,1.601324 -1.18788,2.884594 -2.67237,2.884594 -1.47404,0 -2.672362,-1.28327 -2.672362,-2.884594"
     id="path4288"
     inkscape:connector-curvature="0" />
  <path
     style="fill:none;stroke:#e64ac5;stroke-width:1.61192226px;stroke-linecap:butt;stroke-linejoin:miter;stroke-miterlimit:8;stroke-dasharray:none;stroke-opacity:1"
     d="m 78.784268,63.226533 20.73233,-5.355444"
     id="path4290"
     inkscape:connector-curvature="0" />
  <path
     style="fill:none;stroke:#e64ac5;stroke-width:1.61192226px;stroke-linecap:butt;stroke-linejoin:miter;stroke-miterlimit:8;stroke-dasharray:none;stroke-opacity:1"
     d="m 27.626978,81.074273 5.49853,-14.97387"
     id="path4292"
     inkscape:connector-curvature="0" />
  <path
     style="fill:none;stroke:#e64ac5;stroke-width:1.61192226px;stroke-linecap:butt;stroke-linejoin:miter;stroke-miterlimit:8;stroke-dasharray:none;stroke-opacity:1"
     d="m 35.813958,63.215813 16.3418,-11.155961"
     id="path4294"
     inkscape:connector-curvature="0" />
  <path
     style="fill:none;stroke:#e64ac5;stroke-width:1.61192226px;stroke-linecap:butt;stroke-linejoin:miter;stroke-miterlimit:8;stroke-dasharray:none;stroke-opacity:1"
     d="m 35.050268,12.228135 16.63361,11.060853"
     id="path4296"
     inkscape:connector-curvature="0" />
  <path
     style="fill:none;stroke:#e64ac5;stroke-width:1.61192226px;stroke-linecap:butt;stroke-linejoin:miter;stroke-miterlimit:8;stroke-dasharray:none;stroke-opacity:1"
     d="m 53.587468,28.220257 0,18.977188"
     id="path4298"
     inkscape:connector-curvature="0" />
  <path
     style="fill:none;stroke:#e64ac5;stroke-width:1.61192226px;stroke-linecap:butt;stroke-linejoin:miter;stroke-miterlimit:8;stroke-dasharray:none;stroke-opacity:1"
     d="m 55.453808,51.974903 18.71218,10.32905"
     id="path4300"
     inkscape:connector-curvature="0" />
  <path
     style="fill:none;stroke:#e64ac5;stroke-width:1.61192226px;stroke-linecap:butt;stroke-linejoin:miter;stroke-miterlimit:8;stroke-dasharray:none;stroke-opacity:1"
     d="M 55.453808,23.288988 74.176428,12.228135"
     id="path4302"
     inkscape:connector-curvature="0" />
  <path
     style="fill:none;stroke:#e64ac5;stroke-width:1.61192226px;stroke-linecap:butt;stroke-linejoin:miter;stroke-miterlimit:8;stroke-dasharray:none;stroke-opacity:1"
     d="m 76.106548,65.676223 -3.34575,17.48198"
     id="path4304"
     inkscape:connector-curvature="0" />
  <path
     style="fill:none;stroke:#e64ac5;stroke-width:1.61192226px;stroke-linecap:butt;stroke-linejoin:miter;stroke-miterlimit:8;stroke-dasharray:none;stroke-opacity:1"
     d="m 12.398549,55.580574 18.054599,7.651329"
     id="path4306"
     inkscape:connector-curvature="0" />
  <text
     xml:space="preserve"
     style="font-style:normal;font-variant:normal;font-weight:400;font-size:6.36763906px;line-height:125%;font-family:'Times New Roman';text-align:start;letter-spacing:0px;word-spacing:0px;text-anchor:start;fill:#000000;fill-opacity:1;stroke:none"
     x="58.823105"
     y="51.371521"
     id="text4308"
     sodipodi:linespacing="125%"><tspan
       sodipodi:role="line"
       x="58.823105"
       y="51.371521"
       id="tspan4310"><tspan
         dx="0"
         dy="0"
         style="font-style:normal;font-variant:normal;font-weight:400;font-size:6.36763906px;font-family:'Times New Roman';fill:#000000"
         id="tspan4312">target</tspan></tspan></text>
  <text
     xml:space="preserve"
     style="font-style:normal;font-variant:normal;font-weight:400;font-size:6.36763906px;line-height:125%;font-family:'Times New Roman';text-align:start;letter-spacing:0px;word-spacing:0px;text-anchor:start;fill:#000000;fill-opacity:1;stroke:none"
     x="27.246336"
     y="18.539183"
     id="text4314"
     sodipodi:linespacing="125%"><tspan
       sodipodi:role="line"
       x="27.246336"
       y="18.539183"
       id="tspan4316"><tspan
         dx="0"
         dy="0"
         style="font-style:normal;font-variant:normal;font-weight:400;font-size:6.36763906px;font-family:'Times New Roman';fill:#000000"
         id="tspan4318">2</tspan></tspan></text>
  <text
     xml:space="preserve"
     style="font-style:normal;font-variant:normal;font-weight:400;font-size:6.36763906px;line-height:125%;font-family:'Times New Roman';text-align:start;letter-spacing:0px;word-spacing:0px;text-anchor:start;fill:#000000;fill-opacity:1;stroke:none"
     x="78.658508"
     y="18.018965"
     id="text4320"
     sodipodi:linespacing="125%"><tspan
       sodipodi:role="line"
       x="78.658508"
       y="18.018965"
       id="tspan4322"><tspan
         dx="0"
         dy="0"
         style="font-style:normal;font-variant:normal;font-weight:400;font-size:6.36763906px;font-family:'Times New Roman';fill:#000000"
         id="tspan4324">2</tspan></tspan></text>
  <text
     xml:space="preserve"
     style="font-style:normal;font-variant:normal;font-weight:400;font-size:6.36763906px;line-height:125%;font-family:'Times New Roman';text-align:start;letter-spacing:0px;word-spacing:0px;text-anchor:start;fill:#000000;fill-opacity:1;stroke:none"
     x="6.0505805"
     y="61.75721"
     id="text4326"
     sodipodi:linespacing="125%"><tspan
       sodipodi:role="line"
       x="6.0505805"
       y="61.75721"
       id="tspan4328"><tspan
         dx="0"
         dy="0"
         style="font-style:normal;font-variant:normal;font-weight:400;font-size:6.36763906px;font-family:'Times New Roman';fill:#000000"
         id="tspan4330">2</tspan></tspan></text>
  <text
     xml:space="preserve"
     style="font-style:normal;font-variant:normal;font-weight:400;font-size:6.36763906px;line-height:125%;font-family:'Times New Roman';text-align:start;letter-spacing:0px;word-spacing:0px;text-anchor:start;fill:#000000;fill-opacity:1;stroke:none"
     x="32.168785"
     y="88.326462"
     id="text4332"
     sodipodi:linespacing="125%"><tspan
       sodipodi:role="line"
       x="32.168785"
       y="88.326462"
       id="tspan4334"><tspan
         dx="0"
         dy="0"
         style="font-style:normal;font-variant:normal;font-weight:400;font-size:6.36763906px;font-family:'Times New Roman';fill:#000000"
         id="tspan4336">2</tspan></tspan></text>
  <text
     xml:space="preserve"
     style="font-style:normal;font-variant:normal;font-weight:400;font-size:6.36763906px;line-height:125%;font-family:'Times New Roman';text-align:start;letter-spacing:0px;word-spacing:0px;text-anchor:start;fill:#000000;fill-opacity:1;stroke:none"
     x="75.969986"
     y="92.913925"
     id="text4338"
     sodipodi:linespacing="125%"><tspan
       sodipodi:role="line"
       x="75.969986"
       y="92.913925"
       id="tspan4340"><tspan
         dx="0"
         dy="0"
         style="font-style:normal;font-variant:normal;font-weight:400;font-size:6.36763906px;font-family:'Times New Roman';fill:#000000"
         id="tspan4342">2</tspan></tspan></text>
  <text
     xml:space="preserve"
     style="font-style:normal;font-variant:normal;font-weight:400;font-size:6.36763906px;line-height:125%;font-family:'Times New Roman';text-align:start;letter-spacing:0px;word-spacing:0px;text-anchor:start;fill:#000000;fill-opacity:1;stroke:none"
     x="103.49466"
     y="66.411705"
     id="text4344"
     sodipodi:linespacing="125%"><tspan
       sodipodi:role="line"
       x="103.49466"
       y="66.411705"
       id="tspan4346"><tspan
         dx="0"
         dy="0"
         style="font-style:normal;font-variant:normal;font-weight:400;font-size:6.36763906px;font-family:'Times New Roman';fill:#000000"
         id="tspan4348">2</tspan></tspan></text>
  <text
     xml:space="preserve"
     style="font-style:normal;font-variant:normal;font-weight:400;font-size:6.36763906px;line-height:125%;font-family:'Times New Roman';text-align:start;letter-spacing:0px;word-spacing:0px;text-anchor:start;fill:#000000;fill-opacity:1;stroke:none"
     x="37.0821"
     y="69.73262"
     id="text4350"
     sodipodi:linespacing="125%"><tspan
       sodipodi:role="line"
       x="37.0821"
       y="69.73262"
       id="tspan4352"><tspan
         dx="0"
         dy="0"
         style="font-style:normal;font-variant:normal;font-weight:400;font-size:6.36763906px;font-family:'Times New Roman';fill:#000000"
         id="tspan4354">1</tspan></tspan></text>
  <text
     xml:space="preserve"
     style="font-style:normal;font-variant:normal;font-weight:400;font-size:6.36763906px;line-height:125%;font-family:'Times New Roman';text-align:start;letter-spacing:0px;word-spacing:0px;text-anchor:start;fill:#000000;fill-opacity:1;stroke:none"
     x="69.516891"
     y="68.850327"
     id="text4356"
     sodipodi:linespacing="125%"><tspan
       sodipodi:role="line"
       x="69.516891"
       y="68.850327"
       id="tspan4358"><tspan
         dx="0"
         dy="0"
         style="font-style:normal;font-variant:normal;font-weight:400;font-size:6.36763906px;font-family:'Times New Roman';fill:#000000"
         id="tspan4360">1</tspan></tspan></text>
  <text
     xml:space="preserve"
     style="font-style:normal;font-variant:normal;font-weight:400;font-size:6.36763906px;line-height:125%;font-family:'Times New Roman';text-align:start;letter-spacing:0px;word-spacing:0px;text-anchor:start;fill:#000000;fill-opacity:1;stroke:none"
     x="47.650242"
     y="30.753101"
     id="text4362"
     sodipodi:linespacing="125%"><tspan
       sodipodi:role="line"
       x="47.650242"
       y="30.753101"
       id="tspan4364"><tspan
         dx="0"
         dy="0"
         style="font-style:normal;font-variant:normal;font-weight:400;font-size:6.36763906px;font-family:'Times New Roman';fill:#000000"
         id="tspan4366">1</tspan></tspan></text>
</svg>
